<?xml version="1.0" encoding="utf-8"?>
<!-- Generator: Adobe Illustrator 23.0.4, SVG Export Plug-In . SVG Version: 6.00 Build 0)  -->
<svg version="1.1" xmlns="http://www.w3.org/2000/svg" xmlns:xlink="http://www.w3.org/1999/xlink" x="0px" y="0px"
	 viewBox="0 0 24 24" style="enable-background:new 0 0 24 24;" xml:space="preserve">
<style type="text/css">
	.st0{display:none;}
	.st1{display:inline;}
	.st2{fill:#1393D4;}
	.st3{display:inline;opacity:0.9;}
	.st4{fill:#5FD0F2;}
	.st5{fill:#8BB352;}
	.st6{fill:#F04141;}
	.st7{opacity:0.8;}
</style>
<g id="Capa_1" class="st0">
	<g class="st1">
		<g>
			<path class="st2" d="M9,14.2c0.1,0.1,0.6,0.4,1.3,0.8c0.6,0.3,1,0.4,1.1,0.4c0.4,0.1,0.7,0.2,1,0.2c0.3-0.1,0.6-0.3,1.1-0.5
				c0.6-0.3,1.3-0.6,1.4-0.7c3.3-3.5-2.6-12.5-2.6-12.5S5.9,10.4,9,14.2z"/>
		</g>
		<g>
			<path class="st2" d="M11.9,21.2c0,0,6.3-8.8,3.1-12.4c-0.1-0.1-0.7-0.4-1.4-0.7c-0.4-0.2-0.8-0.4-1.1-0.5c-0.3,0-0.6,0-1,0.1
				c-0.1,0-0.5,0.1-1.1,0.4C9.7,8.4,9.2,8.7,9.1,8.8C5.9,12.4,11.9,21.2,11.9,21.2z"/>
		</g>
	</g>
	<g class="st3">
		<g>
			<path class="st4" d="M13.9,13.7c0,0.1,0.2,0.8,0.6,1.6c0.3,0.6,0.5,1,0.6,1.1c0.2,0.4,0.5,0.7,0.7,0.9c0.3,0.1,0.6,0.3,1.1,0.4
				c0.7,0.2,1.3,0.5,1.4,0.5c4.6-0.2,5.3-11.4,5.3-11.4S13.7,8.6,13.9,13.7z"/>
		</g>
		<g>
			<path class="st4" d="M12,21.2c0,0,9.8-2.1,9.5-7.2c0-0.1-0.3-0.8-0.6-1.6c-0.2-0.5-0.4-0.9-0.5-1.2c-0.2-0.2-0.5-0.4-0.8-0.6
				c-0.1-0.1-0.4-0.3-1-0.5c-0.8-0.3-1.4-0.5-1.5-0.4C12.5,10.1,12,21.2,12,21.2z"/>
		</g>
	</g>
	<g class="st3">
		<g>
			<path class="st5" d="M0.5,6.8c0,0,0.7,11.2,5.3,11.4c0.1,0,0.8-0.2,1.4-0.5c0.5-0.2,0.8-0.3,1.1-0.4c0.2-0.2,0.4-0.5,0.7-0.9
				c0.1-0.1,0.3-0.5,0.6-1.1c0.4-0.8,0.6-1.5,0.6-1.6C10.3,8.6,0.5,6.8,0.5,6.8z"/>
		</g>
		<g>
			<path class="st5" d="M6.9,9.7c-0.1,0-0.7,0.1-1.5,0.4c-0.6,0.2-0.9,0.5-1,0.5c-0.4,0.2-0.6,0.5-0.8,0.6c-0.1,0.3-0.3,0.7-0.5,1.2
				c-0.3,0.7-0.6,1.4-0.6,1.6c-0.3,5.1,9.5,7.2,9.5,7.2S11.5,10.1,6.9,9.7z"/>
		</g>
	</g>
</g>
<g id="Layer_2">
	<g>
		<g>
			<path class="st6" d="M9,14.2c0.1,0.1,0.6,0.4,1.3,0.8c0.6,0.3,1,0.4,1.1,0.4c0.4,0.1,0.7,0.2,1,0.2c0.3-0.1,0.6-0.3,1.1-0.5
				c0.6-0.3,1.3-0.6,1.4-0.7c3.3-3.5-2.6-12.5-2.6-12.5S5.9,10.4,9,14.2z"/>
		</g>
		<g>
			<path class="st6" d="M11.9,21.2c0,0,6.3-8.8,3.1-12.4c-0.1-0.1-0.7-0.4-1.4-0.7c-0.4-0.2-0.8-0.4-1.1-0.5c-0.3,0-0.6,0-1,0.1
				c-0.1,0-0.5,0.1-1.1,0.4C9.7,8.4,9.2,8.7,9.1,8.8C5.9,12.4,11.9,21.2,11.9,21.2z"/>
		</g>
	</g>
	<g class="st7">
		<g>
			<path class="st6" d="M13.9,13.7c0,0.1,0.2,0.8,0.6,1.6c0.3,0.6,0.5,1,0.6,1.1c0.2,0.4,0.5,0.7,0.7,0.9c0.3,0.1,0.6,0.3,1.1,0.4
				c0.7,0.2,1.3,0.5,1.4,0.5c4.6-0.2,5.3-11.4,5.3-11.4S13.7,8.6,13.9,13.7z"/>
		</g>
		<g>
			<path class="st6" d="M12,21.2c0,0,9.8-2.1,9.5-7.2c0-0.1-0.3-0.8-0.6-1.6c-0.2-0.5-0.4-0.9-0.5-1.2c-0.2-0.2-0.5-0.4-0.8-0.6
				c-0.1-0.1-0.4-0.3-1-0.5c-0.8-0.3-1.4-0.5-1.5-0.4C12.5,10.1,12,21.2,12,21.2z"/>
		</g>
	</g>
	<g class="st7">
		<g>
			<path class="st6" d="M0.5,6.8c0,0,0.7,11.2,5.3,11.4c0.1,0,0.8-0.2,1.4-0.5c0.5-0.2,0.8-0.3,1.1-0.4c0.2-0.2,0.4-0.5,0.7-0.9
				c0.1-0.1,0.3-0.5,0.6-1.1c0.4-0.8,0.6-1.5,0.6-1.6C10.3,8.6,0.5,6.8,0.5,6.8z"/>
		</g>
		<g>
			<path class="st6" d="M6.9,9.7c-0.1,0-0.7,0.1-1.5,0.4c-0.6,0.2-0.9,0.5-1,0.5c-0.4,0.2-0.6,0.5-0.8,0.6c-0.1,0.3-0.3,0.7-0.5,1.2
				c-0.3,0.7-0.6,1.4-0.6,1.6c-0.3,5.1,9.5,7.2,9.5,7.2S11.5,10.1,6.9,9.7z"/>
		</g>
	</g>
</g>
</svg>
