<?xml version="1.0" standalone="no"?>
<!DOCTYPE svg PUBLIC "-//W3C//DTD SVG 20010904//EN"
 "http://www.w3.org/TR/2001/REC-SVG-20010904/DTD/svg10.dtd">
<svg version="1.0" xmlns="http://www.w3.org/2000/svg"
 width="1514.000000pt" height="1176.000000pt" viewBox="0 0 1514.000000 1176.000000"
 preserveAspectRatio="xMidYMid meet">
<metadata>
Created by potrace 1.16, written by Peter Selinger 2001-2019
</metadata>
<g transform="translate(0.000000,1176.000000) scale(0.100000,-0.100000)"
fill="#ffffff" stroke="none">
<path d="M1202 7145 l3 -4615 485 -4 c658 -4 1062 -31 1670 -112 200 -26 540
-83 715 -120 39 -8 104 -22 145 -30 41 -9 111 -25 155 -36 44 -11 107 -26 140
-34 33 -9 83 -21 110 -29 28 -7 79 -21 115 -30 36 -10 85 -23 110 -30 25 -7
70 -20 100 -29 30 -9 136 -43 235 -76 99 -34 194 -65 210 -70 34 -10 190 -66
220 -79 11 -5 38 -15 60 -24 43 -16 200 -80 253 -103 17 -8 48 -21 67 -29 19
-9 49 -22 67 -30 18 -7 89 -41 158 -74 l125 -60 -2430 2 -2430 2 -80 28 c-44
15 -91 32 -105 39 -138 62 -220 117 -301 203 -83 89 -106 116 -120 143 -8 15
-17 29 -20 32 -23 20 -90 190 -111 285 -9 37 -13 1108 -17 4105 l-6 4055 -22
41 c-33 61 -95 120 -160 151 -54 26 -67 28 -178 28 -110 0 -125 -2 -175 -27
-57 -28 -120 -79 -120 -97 0 -6 -4 -11 -8 -11 -5 0 -19 -23 -33 -52 l-24 -51
0 -4446 0 -4446 22 -75 c47 -160 82 -231 173 -349 64 -84 87 -106 175 -173
102 -77 175 -113 330 -161 l70 -21 2780 -3 2781 -4 19 -37 c11 -20 22 -39 25
-42 3 -3 19 -26 35 -52 17 -27 33 -48 38 -48 4 0 7 -6 7 -12 1 -16 223 -238
238 -238 7 0 12 -4 12 -9 0 -8 32 -30 125 -88 53 -32 227 -114 280 -131 356
-117 737 -93 1060 65 61 30 124 63 140 73 17 11 40 25 53 31 12 7 22 16 22 21
0 4 4 8 9 8 29 0 301 272 301 301 0 5 4 9 9 9 5 0 12 8 15 18 4 10 14 27 24
38 9 10 26 36 37 57 l20 37 2685 1 c1477 0 2737 4 2800 9 181 13 321 66 475
179 141 105 261 265 310 412 10 30 22 65 27 79 37 92 37 118 37 4585 0 4536 1
4413 -40 4485 -29 50 -95 112 -144 135 -176 82 -384 -1 -448 -178 -9 -24 -13
-1039 -17 -4087 l-6 -4055 -21 -72 c-39 -131 -164 -363 -195 -363 -4 0 -8 -4
-8 -10 0 -14 -75 -90 -88 -90 -7 0 -12 -4 -12 -8 0 -10 -77 -67 -135 -100 -37
-21 -52 -28 -110 -53 -11 -5 -56 -21 -100 -36 l-80 -28 -2190 -3 c-2612 -3
-2711 -2 -2670 17 17 8 57 26 90 42 100 46 218 100 245 111 14 5 39 16 55 23
17 7 71 29 120 49 50 21 103 44 118 52 16 8 35 14 43 14 8 0 22 5 32 10 24 14
150 59 392 139 178 59 281 90 480 146 128 36 405 104 525 130 44 9 107 23 141
31 33 8 69 14 80 14 10 0 48 6 84 14 141 32 515 89 790 120 533 61 895 81
1473 81 l437 0 0 4618 0 4618 -612 -4 c-341 -2 -680 -9 -763 -16 -480 -38
-754 -68 -1080 -117 -207 -32 -301 -48 -550 -99 -38 -8 -106 -22 -150 -31 -44
-8 -103 -22 -131 -30 -28 -8 -59 -14 -69 -14 -10 0 -41 -6 -69 -14 -28 -8 -80
-22 -116 -31 -75 -19 -137 -36 -235 -65 -38 -12 -95 -28 -125 -37 -30 -8 -73
-21 -95 -28 -22 -6 -67 -20 -100 -30 -33 -9 -76 -23 -95 -30 -81 -29 -107 -37
-135 -45 -31 -9 -176 -61 -275 -100 -30 -12 -67 -25 -81 -30 -14 -4 -34 -12
-45 -18 -10 -5 -39 -18 -64 -27 -67 -26 -81 -31 -135 -55 -27 -12 -63 -27 -80
-34 -16 -7 -50 -22 -75 -33 -25 -12 -90 -42 -145 -68 -155 -72 -222 -105 -330
-164 -91 -49 -171 -92 -243 -130 -15 -8 -29 -17 -32 -20 -3 -3 -23 -15 -45
-26 -22 -11 -44 -24 -50 -28 -31 -24 -136 -87 -144 -87 -5 0 -11 -3 -13 -7 -5
-11 -66 -53 -77 -53 -5 0 -11 -4 -13 -8 -1 -4 -21 -19 -43 -32 -22 -13 -47
-30 -55 -37 -26 -23 -109 -83 -115 -83 -3 0 -11 4 -18 10 -57 46 -76 60 -85
60 -6 0 -12 4 -14 9 -5 13 -299 204 -394 256 -27 14 -62 35 -79 46 -16 10 -40
23 -52 28 -12 6 -40 22 -62 36 -22 14 -47 25 -56 25 -8 0 -15 3 -15 8 0 14
-506 259 -690 334 -14 6 -38 16 -55 23 -16 7 -57 23 -90 36 -33 13 -64 27 -70
31 -5 4 -19 8 -31 8 -13 0 -25 4 -28 9 -3 5 -18 12 -33 16 -15 3 -46 15 -70
26 -23 10 -47 19 -53 19 -5 0 -18 4 -28 10 -9 5 -51 21 -92 34 -41 13 -86 28
-100 34 -14 5 -52 18 -85 27 -33 10 -76 23 -95 30 -19 7 -60 19 -90 28 -30 9
-80 23 -110 32 -30 9 -84 24 -120 35 -109 32 -166 47 -360 95 -30 8 -89 21
-130 30 -41 9 -102 23 -135 30 -33 7 -96 20 -140 29 -44 9 -123 24 -175 35
-288 58 -753 121 -1140 155 -427 38 -645 46 -1173 46 l-527 0 2 -4615z m943
4045 c485 -18 995 -64 1340 -121 66 -10 163 -26 215 -35 179 -29 434 -78 615
-119 33 -8 94 -22 135 -31 41 -9 102 -25 135 -34 33 -10 89 -25 125 -35 77
-20 159 -43 215 -60 229 -70 350 -108 370 -116 11 -5 40 -15 65 -23 44 -14 72
-25 180 -66 30 -12 64 -24 75 -27 11 -3 34 -11 50 -18 17 -7 50 -21 75 -30 55
-21 105 -43 143 -61 16 -8 33 -14 37 -14 5 0 44 -16 87 -36 43 -19 92 -41 108
-49 84 -38 448 -220 500 -250 33 -19 80 -45 105 -57 25 -13 47 -26 50 -29 3
-3 25 -17 50 -30 25 -14 65 -37 90 -53 127 -80 166 -106 177 -115 7 -6 15 -11
19 -11 3 0 23 -13 44 -30 21 -16 43 -30 49 -30 6 0 11 -4 11 -8 0 -5 23 -23
50 -41 l50 -32 0 -3985 c0 -2191 -3 -3984 -6 -3984 -4 0 -31 16 -60 35 -29 19
-57 35 -63 35 -6 0 -11 4 -11 8 0 4 -25 20 -55 36 -30 15 -61 33 -68 39 -6 7
-32 22 -57 35 -25 13 -61 32 -80 44 -97 57 -536 278 -554 278 -4 0 -40 16
-176 76 -19 9 -48 22 -65 29 -16 8 -55 24 -85 36 -30 12 -69 28 -87 35 -17 8
-38 14 -46 14 -9 0 -18 4 -21 8 -3 5 -43 21 -88 37 -46 15 -87 31 -93 35 -5 4
-21 10 -35 13 -14 3 -56 17 -95 32 -38 14 -99 35 -135 47 -36 11 -83 26 -105
33 -36 12 -153 47 -300 90 -27 8 -77 22 -110 30 -33 9 -89 25 -125 35 -36 10
-96 26 -135 35 -38 9 -95 22 -125 30 -30 7 -91 21 -135 30 -44 9 -107 23 -140
30 -85 19 -182 37 -240 45 -27 4 -75 12 -105 18 -508 98 -1201 166 -1802 178
l-328 7 0 4054 0 4053 48 0 c26 0 169 -4 317 -10z m11265 -4043 l0 -4054 -327
-7 c-555 -11 -1202 -71 -1638 -151 -44 -8 -91 -15 -104 -15 -13 0 -53 -6 -90
-14 -80 -18 -180 -37 -241 -46 -25 -4 -65 -12 -90 -18 -25 -6 -81 -18 -125
-27 -44 -9 -105 -23 -135 -30 -30 -8 -86 -21 -125 -30 -38 -9 -101 -25 -140
-36 -38 -11 -94 -27 -123 -35 -28 -7 -76 -20 -105 -29 -28 -8 -79 -22 -112
-31 -33 -9 -76 -22 -95 -29 -19 -7 -62 -20 -95 -30 -33 -9 -71 -22 -85 -27
-14 -6 -38 -14 -55 -18 -16 -5 -61 -20 -100 -35 -38 -15 -81 -29 -95 -32 -14
-3 -34 -12 -45 -19 -11 -8 -27 -14 -37 -14 -17 0 -66 -18 -121 -46 -16 -8 -35
-14 -43 -14 -8 0 -22 -4 -32 -10 -9 -5 -46 -21 -82 -36 -36 -14 -85 -35 -110
-46 -25 -11 -56 -24 -70 -30 -75 -30 -311 -137 -375 -170 -95 -48 -284 -148
-325 -172 -25 -14 -56 -30 -69 -36 -13 -6 -44 -24 -68 -40 -24 -17 -46 -30
-49 -30 -2 0 -23 -12 -47 -27 -23 -15 -58 -36 -77 -46 -19 -11 -46 -28 -59
-38 -13 -11 -28 -19 -32 -19 -5 0 -9 1747 -9 3980 l0 3979 23 21 c12 12 34 29
50 38 15 9 27 20 27 24 0 4 5 8 10 8 6 0 16 5 23 11 19 16 240 160 257 167 8
3 36 21 62 39 26 18 52 33 57 33 5 0 16 6 23 13 7 7 33 23 58 36 25 12 72 37
105 56 61 35 402 205 485 243 25 11 74 33 110 50 36 16 90 39 120 51 30 13 69
28 85 35 40 18 92 38 195 76 47 18 101 38 120 45 51 19 197 72 260 95 19 6 51
15 70 20 19 4 46 12 60 17 14 6 52 18 85 28 33 9 78 23 100 30 59 18 142 41
215 60 36 10 92 25 125 35 55 16 94 25 270 65 59 13 140 30 280 59 95 19 219
42 340 61 55 9 147 25 205 36 58 10 120 19 138 19 18 0 77 7 130 14 300 45
909 88 1340 94 l102 2 0 -4053z"/>
<path d="M2230 9983 c0 -19 -7 -79 -14 -132 -21 -139 -25 -219 -10 -225 7 -2
45 -7 85 -11 237 -19 962 -124 1214 -175 50 -10 131 -26 180 -35 91 -16 159
-30 295 -60 175 -38 218 -47 266 -61 28 -8 60 -14 71 -14 11 0 39 -6 64 -14
41 -13 122 -35 264 -73 33 -8 80 -21 105 -28 25 -8 70 -21 100 -29 201 -58
561 -179 655 -220 17 -7 48 -20 70 -29 113 -43 293 -122 402 -176 66 -34 123
-61 126 -61 11 0 233 -134 268 -162 20 -15 41 -28 47 -28 5 0 28 24 50 53 39
51 61 77 105 127 13 14 40 47 61 73 37 46 38 48 20 62 -34 27 -212 145 -218
145 -3 0 -38 19 -78 43 -115 67 -305 158 -483 232 -49 20 -108 45 -130 55 -63
28 -201 80 -213 80 -6 0 -23 6 -39 14 -15 8 -53 22 -83 31 -30 9 -71 23 -90
30 -64 25 -386 123 -525 160 -27 7 -75 20 -105 29 -75 20 -161 42 -250 62 -41
9 -95 23 -119 30 -25 8 -53 14 -64 14 -10 0 -51 9 -90 19 -40 11 -110 27 -157
36 -47 9 -114 23 -150 30 -36 8 -105 21 -155 30 -49 9 -124 22 -165 30 -79 15
-214 37 -365 60 -49 8 -146 23 -215 35 -69 11 -136 20 -150 20 -14 0 -68 6
-120 14 -95 15 -309 41 -407 50 l-53 5 0 -36z"/>
<path d="M2157 7369 c-9 -85 -18 -172 -20 -194 l-2 -40 65 -11 c36 -7 85 -12
110 -13 25 0 95 -8 155 -16 667 -95 1048 -159 1325 -221 36 -8 73 -14 83 -14
10 0 51 -9 90 -19 40 -11 106 -27 147 -36 41 -9 100 -22 130 -30 30 -8 91 -23
135 -34 44 -10 116 -29 160 -41 44 -13 96 -26 115 -30 19 -4 49 -12 65 -18 17
-6 84 -27 150 -47 209 -65 419 -134 437 -145 10 -5 26 -10 36 -10 10 0 22 -4
28 -8 5 -5 38 -19 74 -31 36 -12 85 -32 110 -43 25 -11 54 -24 65 -28 11 -5
43 -18 70 -30 28 -12 64 -27 80 -34 40 -17 309 -152 360 -180 89 -49 110 -61
115 -67 3 -3 26 -18 53 -33 26 -15 47 -32 47 -37 0 -5 7 -9 15 -9 8 0 15 3 15
8 0 4 18 26 40 50 22 24 40 47 40 52 0 6 4 10 8 10 4 0 24 21 44 48 21 26 53
65 72 87 20 22 36 43 36 47 0 4 -59 47 -132 95 -137 90 -420 238 -613 320 -33
14 -80 35 -105 45 -25 11 -54 23 -65 28 -42 16 -111 43 -145 55 -19 7 -53 20
-75 28 -22 8 -60 23 -85 32 -25 10 -58 21 -75 25 -16 5 -46 14 -65 21 -19 6
-51 17 -70 24 -19 7 -62 20 -95 30 -33 9 -78 23 -100 30 -84 26 -213 63 -315
89 -93 25 -207 56 -264 72 -26 8 -55 14 -64 14 -8 0 -38 6 -66 14 -28 8 -87
22 -131 31 -44 9 -107 23 -140 30 -81 18 -191 40 -300 60 -49 9 -130 25 -180
35 -117 24 -362 64 -575 94 -225 32 -545 73 -625 80 -33 3 -80 8 -105 12 l-45
6 -18 -153z"/>
<path d="M2230 4920 c0 -17 -6 -74 -14 -128 -8 -53 -16 -126 -17 -162 l-3 -65
125 -17 c235 -32 304 -40 379 -48 41 -4 109 -13 150 -20 41 -6 120 -18 175
-26 173 -26 288 -45 360 -60 39 -8 79 -14 90 -14 11 0 54 -7 95 -15 41 -9 118
-25 170 -36 257 -53 317 -66 435 -94 39 -9 99 -23 135 -31 36 -8 92 -22 125
-30 33 -9 87 -22 120 -30 33 -9 87 -23 120 -33 33 -10 85 -25 115 -34 146 -43
268 -80 300 -92 19 -7 60 -20 90 -30 84 -26 220 -74 270 -94 25 -11 65 -27 90
-36 25 -10 59 -24 77 -31 17 -8 37 -14 45 -14 8 0 18 -4 23 -9 6 -5 55 -28
109 -51 54 -23 106 -45 115 -50 9 -5 63 -32 121 -61 58 -29 138 -72 178 -96
41 -24 75 -43 77 -43 2 0 31 -18 64 -40 33 -22 64 -40 69 -40 4 0 26 21 48 47
21 25 44 51 49 57 6 6 30 36 55 66 25 30 50 59 57 63 7 4 13 14 13 21 0 8 7
16 15 20 24 9 18 22 -27 55 -24 17 -47 34 -53 39 -5 4 -17 11 -25 15 -25 13
-57 32 -71 44 -16 12 -89 53 -164 92 -27 14 -52 29 -55 32 -3 4 -36 21 -75 39
-102 47 -194 89 -245 111 -25 11 -58 26 -75 34 -16 8 -55 24 -85 36 -30 12
-69 28 -87 35 -17 8 -37 14 -45 14 -8 0 -23 7 -34 15 -10 8 -29 15 -41 15 -12
0 -24 4 -28 9 -3 5 -20 13 -38 17 -17 3 -45 12 -62 19 -38 16 -91 34 -130 45
-16 5 -70 23 -120 39 -49 17 -115 38 -145 47 -126 37 -145 43 -317 90 -32 8
-80 21 -108 29 -27 8 -81 21 -120 30 -38 9 -101 25 -140 34 -38 10 -106 26
-150 36 -44 9 -109 23 -145 31 -215 46 -370 75 -625 118 -49 9 -142 25 -205
35 -235 40 -534 82 -876 121 -135 15 -134 15 -134 -20z"/>
<path d="M12930 10013 c-25 -1 -99 -10 -165 -18 -66 -9 -174 -22 -240 -31 -66
-8 -178 -24 -250 -35 -71 -11 -175 -27 -230 -35 -142 -22 -388 -64 -525 -90
-342 -65 -496 -98 -606 -130 -28 -7 -59 -14 -69 -14 -10 0 -41 -6 -69 -14 -28
-8 -78 -21 -111 -30 -91 -22 -185 -47 -235 -61 -25 -7 -70 -20 -100 -29 -200
-56 -517 -159 -682 -222 -24 -9 -59 -22 -78 -29 -35 -13 -178 -72 -255 -105
-22 -10 -65 -28 -95 -41 -66 -28 -320 -157 -370 -187 -19 -12 -44 -26 -55 -31
-28 -13 -154 -95 -189 -123 -16 -13 -34 -26 -39 -30 -11 -6 56 -101 111 -157
13 -14 46 -53 74 -88 28 -35 55 -63 60 -63 4 0 38 23 76 50 38 28 71 50 75 50
3 0 30 14 59 32 49 29 298 155 378 191 48 21 276 115 325 134 22 8 55 21 73
29 18 8 38 14 44 14 7 0 30 8 52 19 23 10 106 39 186 65 192 62 200 64 405
122 33 9 78 23 100 30 23 8 47 14 55 14 8 0 44 8 80 19 79 24 160 44 260 66
41 9 100 23 130 30 73 18 264 58 425 89 309 59 393 74 560 100 288 44 623 89
860 114 l70 7 -3 95 c-2 52 -10 139 -18 192 -8 54 -14 100 -14 103 0 3 -3 4
-7 3 -5 -1 -28 -3 -53 -5z"/>
<path d="M12810 7608 c-426 -49 -960 -128 -1225 -180 -55 -10 -136 -26 -180
-34 -44 -9 -108 -22 -142 -30 -34 -8 -72 -14 -84 -14 -12 0 -45 -6 -73 -14
-28 -8 -87 -22 -131 -31 -44 -9 -103 -23 -131 -31 -28 -8 -59 -14 -69 -14 -17
0 -48 -8 -195 -50 -36 -10 -94 -26 -130 -35 -133 -34 -426 -120 -510 -150 -19
-7 -60 -20 -90 -30 -54 -16 -124 -41 -205 -72 -22 -8 -57 -21 -77 -29 -58 -21
-121 -45 -143 -55 -11 -4 -49 -20 -85 -34 -136 -54 -531 -249 -610 -301 -30
-20 -68 -43 -85 -51 -45 -24 -135 -94 -135 -106 0 -5 6 -15 14 -21 7 -6 44
-49 82 -96 38 -46 80 -96 93 -110 13 -14 30 -35 38 -47 15 -23 43 -31 43 -14
0 8 87 69 115 80 6 2 26 14 45 26 46 29 183 103 245 133 93 45 219 101 295
132 30 12 73 30 95 40 61 27 98 42 125 50 14 5 50 18 80 30 30 12 69 25 85 30
17 5 62 20 100 33 39 14 117 39 175 57 58 18 130 40 160 50 54 18 117 36 223
64 28 8 77 21 107 30 92 25 222 56 380 92 41 9 109 24 150 34 108 26 199 44
470 95 93 18 236 41 540 89 52 9 163 25 245 36 83 12 194 28 247 36 53 8 113
14 132 14 19 0 69 5 111 11 l75 11 -6 97 c-3 53 -12 137 -20 186 -8 50 -14 93
-14 98 0 8 -27 7 -130 -5z"/>
<path d="M12845 4938 c-38 -5 -124 -15 -190 -24 -317 -39 -495 -65 -660 -94
-60 -11 -120 -20 -133 -20 -13 0 -51 -6 -85 -14 -34 -8 -107 -22 -162 -31 -55
-9 -129 -23 -165 -30 -36 -7 -103 -21 -150 -30 -47 -9 -112 -22 -145 -30 -33
-7 -96 -20 -140 -29 -44 -10 -110 -26 -146 -37 -36 -10 -74 -19 -84 -19 -10 0
-43 -7 -74 -16 -78 -22 -190 -53 -331 -89 -36 -10 -83 -23 -105 -30 -22 -7
-65 -20 -95 -29 -62 -18 -189 -59 -235 -75 -73 -26 -183 -63 -215 -73 -19 -5
-39 -14 -44 -19 -6 -5 -17 -9 -25 -9 -14 0 -136 -45 -221 -82 -25 -11 -54 -23
-65 -28 -165 -67 -443 -203 -535 -260 -8 -5 -51 -31 -95 -57 -80 -47 -185
-121 -185 -130 0 -6 62 -86 72 -94 5 -3 19 -20 32 -38 40 -54 138 -161 147
-161 5 0 46 24 92 53 45 30 89 57 97 60 8 4 35 19 60 33 73 43 314 161 390
192 14 6 45 19 70 30 50 21 91 38 194 77 38 15 77 31 85 35 18 8 22 9 236 80
223 74 231 76 345 109 58 17 134 39 170 50 36 11 92 26 125 34 155 39 194 49
241 63 28 8 60 14 71 14 11 0 39 6 64 14 42 13 115 29 274 61 39 8 111 23 160
34 126 27 212 43 270 51 28 4 75 12 105 18 30 6 98 17 150 26 52 8 136 22 186
30 50 9 104 16 120 16 16 0 65 6 109 14 44 8 141 22 215 30 74 9 193 24 263
33 l128 17 -6 85 c-6 81 -19 196 -31 269 -5 30 -7 32 -42 30 -20 0 -68 -5
-107 -10z"/>
</g>
</svg>
