<svg xmlns="http://www.w3.org/2000/svg" width="23.885" height="19.5" viewBox="0 0 23.885 19.5">
  <path id="Path_1970" data-name="Path 1970" d="M10.555,14.452c0,.04,0,.142.015.3a3.533,3.533,0,0,1,.008.4,2.765,2.765,0,0,1-.045.359.486.486,0,0,1-.153.3.47.47,0,0,1-.311.1H5.195a4.228,4.228,0,0,1-3.1-1.288,4.224,4.224,0,0,1-1.286-3.1V.8A4.226,4.226,0,0,1,2.093-2.3a4.228,4.228,0,0,1,3.1-1.288h4.875a.469.469,0,0,1,.342.145.469.469,0,0,1,.145.344c0,.04.005.142.016.3a3.827,3.827,0,0,1,.007.4,2.765,2.765,0,0,1-.045.359.489.489,0,0,1-.151.3.474.474,0,0,1-.312.1H5.2A2.343,2.343,0,0,0,3.475-.92,2.345,2.345,0,0,0,2.759.8V11.526a2.349,2.349,0,0,0,.716,1.723,2.347,2.347,0,0,0,1.721.715H9.949l.176.016q.176.014.176.045c0,.019.04.046.12.083s.117.082.108.136a.409.409,0,0,0,.031.2ZM24.692,6.165a.943.943,0,0,1-.289.686l-8.287,8.287a.975.975,0,0,1-1.661-.686V10.064H7.629a.938.938,0,0,1-.686-.289.926.926,0,0,1-.289-.686V3.239a.943.943,0,0,1,.289-.686.928.928,0,0,1,.686-.289h6.825V-2.123a.944.944,0,0,1,.289-.687A.925.925,0,0,1,15.43-3.1a.948.948,0,0,1,.686.288L24.4,5.477A.941.941,0,0,1,24.692,6.165Z" transform="translate(-0.807 3.586)" fill="#fff"/>
</svg>
