<?xml version="1.0" encoding="iso-8859-1"?>
<!-- Generator: Adobe Illustrator 19.0.0, SVG Export Plug-In . SVG Version: 6.00 Build 0)  -->
<svg version="1.1" id="Layer_1" xmlns="http://www.w3.org/2000/svg" xmlns:xlink="http://www.w3.org/1999/xlink" x="0px" y="0px"
	 viewBox="0 0 455 455" style="enable-background:new 0 0 455 455;" xml:space="preserve">
<g fill="#ffffff">
	<path d="M366.25,157.37V35.078c-16.109-4.837-32.887-8.695-50-9.558V157.37l25-13.411L366.25,157.37z"/>
	<path d="M0,59.348v285c14.785,0,34.189-6.719,54.734-13.833c27.34-9.467,58.328-20.197,91.065-20.197
		c22.374,0,47.362,5.774,66.701,14.488V41.456c-17.113-9.038-43.022-16.138-66.701-16.138C90.492,25.318,38.149,59.348,0,59.348z"/>
	<path d="M396.25,44.998v162.509l-55-29.504l-55,29.504V27.32c-16.345,2.725-32.088,7.977-43.75,14.137v283.35
		c19.339-8.714,44.326-14.487,66.701-14.487c32.737,0,63.725,10.73,91.065,20.197c20.544,7.114,39.948,13.833,54.733,13.833v-285
		C437.926,59.348,418.003,52.53,396.25,44.998z"/>
	<path d="M64.55,358.864C41.553,366.827,19.832,374.348,0,374.348v55.333c38.149,0,90.492-34.03,145.799-34.03
		c32.591,0,53.016,13.445,65.294,26.89l1.408,0v-63.593c-11.843-8.537-39.555-18.631-66.701-18.631
		C118.109,340.318,90.881,349.746,64.55,358.864z"/>
	<path d="M309.201,340.318c-27.148,0-54.859,10.094-66.701,18.631v63.594l1.407,0c12.277-13.446,32.703-26.891,65.294-26.891
		c55.306,0,107.65,34.03,145.799,34.03v-55.333c-19.832,0-41.553-7.521-64.55-15.484
		C364.119,349.746,336.892,340.318,309.201,340.318z"/>
</g>
<g>
</g>
<g>
</g>
<g>
</g>
<g>
</g>
<g>
</g>
<g>
</g>
<g>
</g>
<g>
</g>
<g>
</g>
<g>
</g>
<g>
</g>
<g>
</g>
<g>
</g>
<g>
</g>
<g>
</g>
</svg>
