<svg xmlns="http://www.w3.org/2000/svg" width="42" height="42" viewBox="0 0 42 42">
  <circle id="Ellipse_1426" data-name="Ellipse 1426" cx="21" cy="21" r="21" fill="#fff"/>
  <path id="user" d="M19,18.236a3.363,3.363,0,0,1-.985,2.557,3.639,3.639,0,0,1-2.619.938H3.6a3.643,3.643,0,0,1-2.619-.938A3.355,3.355,0,0,1,0,18.236q0-.715.047-1.4a13.638,13.638,0,0,1,.188-1.472A11.462,11.462,0,0,1,.593,13.9a6.923,6.923,0,0,1,.58-1.316,4.771,4.771,0,0,1,.836-1.094,3.5,3.5,0,0,1,1.154-.722,4.062,4.062,0,0,1,1.5-.269,1.654,1.654,0,0,1,.567.29q.446.29,1.005.648a6.369,6.369,0,0,0,1.458.648,5.738,5.738,0,0,0,3.6,0,6.369,6.369,0,0,0,1.458-.648q.56-.358,1.005-.648a1.654,1.654,0,0,1,.567-.29,4.054,4.054,0,0,1,1.5.269,3.524,3.524,0,0,1,1.154.722,4.707,4.707,0,0,1,.836,1.094,7.071,7.071,0,0,1,.58,1.316,11.089,11.089,0,0,1,.358,1.465,14.243,14.243,0,0,1,.188,1.472q.048.682.047,1.4ZM14.684,6.183a4.993,4.993,0,0,1-1.518,3.664A4.993,4.993,0,0,1,9.5,11.365,4.993,4.993,0,0,1,5.837,9.847,4.993,4.993,0,0,1,4.319,6.183,4.993,4.993,0,0,1,5.837,2.518,4.993,4.993,0,0,1,9.5,1a4.993,4.993,0,0,1,3.664,1.518A4.993,4.993,0,0,1,14.684,6.183Z" transform="translate(11.5 8.695)" fill="#1c4da1"/>
</svg>
