<svg xmlns="http://www.w3.org/2000/svg" width="12" height="13.333" viewBox="0 0 12 13.333">
  <g id="Group_9162" data-name="Group 9162" transform="translate(-1138 -421)">
    <path id="ic_assignment_turned_in_24px" d="M13.667,2.333H10.88a1.992,1.992,0,0,0-3.76,0H4.333A1.337,1.337,0,0,0,3,3.667V13a1.337,1.337,0,0,0,1.333,1.333h9.333A1.337,1.337,0,0,0,15,13V3.667A1.337,1.337,0,0,0,13.667,2.333ZM9,2.333A.667.667,0,1,1,8.333,3,.669.669,0,0,1,9,2.333Z" transform="translate(1135 420)" fill="#ece173"/>
    <path id="ic_schedule_24px" d="M5.8,2A3.8,3.8,0,1,0,9.6,5.8,3.8,3.8,0,0,0,5.8,2Zm0,6.841A3.041,3.041,0,1,1,8.841,5.8,3.04,3.04,0,0,1,5.8,8.841ZM5.991,3.9h-.57v2.28l2,1.2L7.7,6.911,5.991,5.9Z" transform="translate(1138.199 423.5)" fill="#fbf7d0"/>
  </g>
</svg>
