<svg xmlns="http://www.w3.org/2000/svg" width="17" height="17" viewBox="0 0 17 17">
  <g id="Path_2039" data-name="Path 2039" fill="#1c4da1">
    <path d="M 15 16.5 L 2 16.5 C 1.172899961471558 16.5 0.5 15.82709980010986 0.5 15 L 0.5 2 C 0.5 1.172899961471558 1.172899961471558 0.5 2 0.5 L 15 0.5 C 15.82709980010986 0.5 16.5 1.172899961471558 16.5 2 L 16.5 15 C 16.5 15.82709980010986 15.82709980010986 16.5 15 16.5 Z" stroke="none"/>
    <path d="M 2 1 C 1.448599815368652 1 1 1.448599815368652 1 2 L 1 15 C 1 15.55140018463135 1.448599815368652 16 2 16 L 15 16 C 15.55140018463135 16 16 15.55140018463135 16 15 L 16 2 C 16 1.448599815368652 15.55140018463135 1 15 1 L 2 1 M 2 0 L 15 0 C 16.10457038879395 0 17 0.8954296112060547 17 2 L 17 15 C 17 16.10457038879395 16.10457038879395 17 15 17 L 2 17 C 0.8954296112060547 17 0 16.10457038879395 0 15 L 0 2 C 0 0.8954296112060547 0.8954296112060547 0 2 0 Z" stroke="none" fill="#1c4da1"/>
  </g>
  <path id="Path_2041" data-name="Path 2041" d="M188.427,261.786a6.514,6.514,0,0,0-.923-.425,3.733,3.733,0,1,0-4.671,0,6.6,6.6,0,0,0-4.257,6.158.712.712,0,1,0,1.425,0,5.169,5.169,0,0,1,7.722-4.494.713.713,0,0,0,.705-1.239Zm-3.259-5.64a2.308,2.308,0,1,1-2.308,2.308A2.31,2.31,0,0,1,185.168,256.146Zm6.745,8.483a.369.369,0,0,1,.088.279l-.377,4.584a.383.383,0,0,1-.672.216l-1.114-1.314-2.043,1.732a.369.369,0,0,1-.279.088.363.363,0,0,1-.261-.133l-1.485-1.751a.372.372,0,0,1-.088-.279.365.365,0,0,1,.132-.26l2.043-1.732-1.114-1.314a.367.367,0,0,1-.088-.279.363.363,0,0,1,.132-.261.371.371,0,0,1,.279-.088l4.584.377A.37.37,0,0,1,191.913,264.629Z" transform="translate(-176.787 -253.969)" fill="#fff"/>
</svg>
