<svg xmlns="http://www.w3.org/2000/svg" width="13.864" height="16" viewBox="0 0 13.864 16">
  <path id="Path_1997" data-name="Path 1997" d="M188.747,262.016a6.725,6.725,0,0,0-.953-.439,3.854,3.854,0,1,0-4.823,0,6.813,6.813,0,0,0-4.4,6.358.736.736,0,1,0,1.471,0,5.337,5.337,0,0,1,7.973-4.64.736.736,0,0,0,.728-1.279Zm-3.365-5.824A2.383,2.383,0,1,1,183,258.575,2.385,2.385,0,0,1,185.382,256.192Zm6.965,8.759a.381.381,0,0,1,.09.288l-.389,4.734a.4.4,0,0,1-.694.224l-1.15-1.356-2.109,1.789a.381.381,0,0,1-.288.091.375.375,0,0,1-.269-.137l-1.533-1.808a.384.384,0,0,1-.09-.288.377.377,0,0,1,.136-.269l2.11-1.789-1.15-1.356a.379.379,0,0,1-.091-.288.375.375,0,0,1,.137-.269.383.383,0,0,1,.288-.09l4.733.389A.382.382,0,0,1,192.347,264.951Z" transform="translate(-178.575 -254.721)" fill="#ffffff"/>
</svg>
