<svg xmlns="http://www.w3.org/2000/svg" width="15.888" height="17.332" viewBox="0 0 15.888 17.332">
  <path id="Path_1998" data-name="Path 1998" d="M6.888,8.861V.917a.354.354,0,0,0-.1-.26.345.345,0,0,0-.26-.1H5.8a.357.357,0,0,0-.26.1.347.347,0,0,0-.1.26V8.861a.356.356,0,0,0,.1.26.343.343,0,0,0,.26.1h.722a.352.352,0,0,0,.26-.1A.341.341,0,0,0,6.888,8.861Zm2.889,0V.917a.357.357,0,0,0-.1-.26.345.345,0,0,0-.26-.1H8.694a.356.356,0,0,0-.26.1.347.347,0,0,0-.1.26V8.861a.356.356,0,0,0,.1.26.341.341,0,0,0,.26.1h.722a.352.352,0,0,0,.26-.1A.345.345,0,0,0,9.777,8.861Zm2.889,0V.917a.357.357,0,0,0-.1-.26.347.347,0,0,0-.26-.1h-.722a.356.356,0,0,0-.26.1.343.343,0,0,0-.1.26V8.861a.352.352,0,0,0,.1.26.341.341,0,0,0,.26.1h.722a.353.353,0,0,0,.26-.1A.345.345,0,0,0,12.666,8.861ZM6.527-2.333h5.056l-.542-1.32a.328.328,0,0,0-.192-.124H7.271a.328.328,0,0,0-.192.124ZM17-1.971v.722a.358.358,0,0,1-.1.26.345.345,0,0,1-.26.1H15.555v10.7a2.564,2.564,0,0,1-.53,1.619,1.572,1.572,0,0,1-1.276.683H4.361a1.59,1.59,0,0,1-1.276-.66,2.471,2.471,0,0,1-.53-1.6V-.888H1.472a.356.356,0,0,1-.26-.1.347.347,0,0,1-.1-.26v-.722a.356.356,0,0,1,.1-.26.346.346,0,0,1,.26-.1H4.959l.79-1.884a1.554,1.554,0,0,1,.609-.711,1.592,1.592,0,0,1,.892-.293h3.61a1.592,1.592,0,0,1,.892.293,1.554,1.554,0,0,1,.609.711l.79,1.884h3.487a.353.353,0,0,1,.26.1A.345.345,0,0,1,17-1.971Z" transform="translate(-1.111 5.221)" fill="#1c4da1"/>
</svg>
