<svg height="512" viewBox="0 0 192 192" width="512" style="enable-background:new 0 0 367.6 367.6;fill:#ffffff" xmlns="http://www.w3.org/2000/svg"><path d="m0 176h192v16h-192z"/><path d="m172.874 28.482 3.365 13.458 15.522-3.88-8-32a8 8 0 0 0 -9.7-5.821l-32 8 3.88 15.522 12.953-3.238c-45.333 65.535-122.171 83.477-158.894 83.477v16c19.637 0 52.339-5.17 85.229-19.681 36.986-16.319 66.386-40.439 87.645-71.837z"/><path d="m24 128a8 8 0 0 0 -8 8v32h48v-32a8 8 0 0 0 -8-8z"/><path d="m80 112a8 8 0 0 0 -8 8v48h48v-48a8 8 0 0 0 -8-8z"/><path d="m136 80a8 8 0 0 0 -8 8v80h48v-80a8 8 0 0 0 -8-8z"/></svg>
