<svg id="Group_8962" data-name="Group 8962" xmlns="http://www.w3.org/2000/svg" width="25.146" height="20.079" viewBox="0 0 25.146 20.079">
  <path id="ic_folder_24px" d="M12.059,4H4.515a2.509,2.509,0,0,0-2.5,2.51L2,21.569a2.52,2.52,0,0,0,2.515,2.51H24.632a2.52,2.52,0,0,0,2.515-2.51V9.02a2.52,2.52,0,0,0-2.515-2.51H14.573Z" transform="translate(-2 -4)" fill="#fff"/>
  <path id="ic_call_split_24px" d="M11.562,4l1.732,1.6L11.116,7.618l1.074.994L14.367,6.6,16.1,8.2V4ZM8.537,4H4V8.2L5.732,6.6,9.293,9.885V15.2h1.512V9.312l-4-3.709Z" transform="translate(6 2.803)" fill="#d8d8e1"/>
</svg>
