<svg xmlns="http://www.w3.org/2000/svg" width="14.576" height="16" viewBox="0 0 14.576 16">
  <path id="Path_1996" data-name="Path 1996" d="M228.755,261.893a6.62,6.62,0,0,0-.938-.432,3.789,3.789,0,1,0-4.742,0,6.7,6.7,0,0,0-4.322,6.251.723.723,0,1,0,1.446,0,5.247,5.247,0,0,1,7.839-4.562.724.724,0,0,0,.716-1.257Zm-3.308-5.726a2.343,2.343,0,1,1-2.343,2.343A2.345,2.345,0,0,1,225.447,256.167Zm.7,10.863a.375.375,0,0,1,.115-.274l3.3-3.3a.389.389,0,0,1,.662.273v1.748h2.719a.375.375,0,0,1,.273.115.37.37,0,0,1,.115.274V268.2a.374.374,0,0,1-.115.273.37.37,0,0,1-.273.115h-2.719v1.748a.374.374,0,0,1-.115.273.367.367,0,0,1-.273.115.379.379,0,0,1-.274-.115l-3.3-3.3A.372.372,0,0,1,226.143,267.03Z" transform="translate(-218.754 -254.721)" fill="#1c4da1"/>
</svg>
