<svg xmlns="http://www.w3.org/2000/svg" width="21.698" height="21.709" viewBox="0 0 21.698 21.709">
  <path id="Path_1968" data-name="Path 1968" d="M14.466,11.853a3.618,3.618,0,0,0-3.617-3.617,3.618,3.618,0,0,0-3.617,3.617,3.618,3.618,0,0,0,3.617,3.617,3.618,3.618,0,0,0,3.617-3.617ZM21.7,10.313v3.136a.55.55,0,0,1-.112.326.431.431,0,0,1-.282.184l-2.613.4a8.936,8.936,0,0,1-.552,1.286q.494.708,1.512,1.95a.55.55,0,0,1,.141.353.477.477,0,0,1-.127.326,14.381,14.381,0,0,1-1.4,1.526q-1.017,1-1.327,1a.684.684,0,0,1-.367-.127l-1.95-1.526a7.983,7.983,0,0,1-1.286.537,22.852,22.852,0,0,1-.411,2.628.476.476,0,0,1-.508.4H9.285a.535.535,0,0,1-.345-.119.414.414,0,0,1-.163-.3l-.4-2.6a8.71,8.71,0,0,1-1.271-.523L5.116,20.672a.506.506,0,0,1-.353.127.487.487,0,0,1-.353-.156A18.712,18.712,0,0,1,2.08,18.268a.554.554,0,0,1,.013-.651c.141-.2.382-.512.72-.94s.593-.761.763-1A6.985,6.985,0,0,1,3,14.282L.411,13.9a.444.444,0,0,1-.3-.177A.543.543,0,0,1,0,13.391V10.255a.55.55,0,0,1,.112-.326.43.43,0,0,1,.268-.184l2.628-.4a6.952,6.952,0,0,1,.552-1.3Q3,7.243,2.049,6.1a.533.533,0,0,1-.141-.338.6.6,0,0,1,.127-.326A14.09,14.09,0,0,1,3.427,3.916Q4.453,2.9,4.762,2.9a.6.6,0,0,1,.367.141l1.95,1.512a7.983,7.983,0,0,1,1.286-.537,22.851,22.851,0,0,1,.411-2.628A.476.476,0,0,1,9.283,1h3.136a.535.535,0,0,1,.345.119.414.414,0,0,1,.163.3l.4,2.6a8.71,8.71,0,0,1,1.271.523L16.6,3.032a.456.456,0,0,1,.338-.127.542.542,0,0,1,.353.141,19.348,19.348,0,0,1,2.331,2.4.45.45,0,0,1,.1.311.55.55,0,0,1-.112.326c-.141.2-.382.512-.72.94s-.593.761-.763,1a8.6,8.6,0,0,1,.579,1.385l2.586.4a.444.444,0,0,1,.3.177A.543.543,0,0,1,21.7,10.313Z" transform="translate(-0.002 -0.997)" fill="#fff"/>
</svg>
